<svg xmlns="http://www.w3.org/2000/svg" viewBox="0 0 1200 800" width="1200" height="800">
  <defs>
    <linearGradient id="skyGradient" x1="0%" y1="0%" x2="0%" y2="100%">
      <stop offset="0%" style="stop-color:#87CEEB;stop-opacity:1" />
      <stop offset="100%" style="stop-color:#4682B4;stop-opacity:1" />
    </linearGradient>
    <radialGradient id="sunGlow" cx="50%" cy="50%" r="50%">
      <stop offset="0%" style="stop-color:#FFD700;stop-opacity:0.3" />
      <stop offset="100%" style="stop-color:#FFD700;stop-opacity:0" />
    </radialGradient>
  </defs>
  
  <!-- Sky background -->
  <rect width="1200" height="800" fill="url(#skyGradient)"/>
  
  <!-- Sun glow -->
  <circle cx="150" cy="150" r="80" fill="url(#sunGlow)"/>
  
  <!-- Sun -->
  <circle cx="150" cy="150" r="40" fill="#FFD700" stroke="#FFA500" stroke-width="3"/>
  
  <!-- Sun rays -->
  <g stroke="#FFA500" stroke-width="2" fill="none">
    <line x1="150" y1="70" x2="150" y2="50"/>
    <line x1="150" y1="230" x2="150" y2="250"/>
    <line x1="70" y1="150" x2="50" y2="150"/>
    <line x1="230" y1="150" x2="250" y2="150"/>
    <line x1="90" y1="90" x2="75" y2="75"/>
    <line x1="210" y1="210" x2="225" y2="225"/>
    <line x1="90" y1="210" x2="75" y2="225"/>
    <line x1="210" y1="90" x2="225" y2="75"/>
  </g>
  
  <!-- Clouds -->
  <ellipse cx="300" cy="200" rx="60" ry="30" fill="#FFFFFF" opacity="0.8"/>
  <ellipse cx="400" cy="200" rx="50" ry="25" fill="#FFFFFF" opacity="0.8"/>
  <ellipse cx="350" cy="220" rx="70" ry="35" fill="#FFFFFF" opacity="0.8"/>
  
  <ellipse cx="800" cy="150" rx="50" ry="25" fill="#FFFFFF" opacity="0.7"/>
  <ellipse cx="900" cy="150" rx="40" ry="20" fill="#FFFFFF" opacity="0.7"/>
  <ellipse cx="850" cy="170" rx="60" ry="30" fill="#FFFFFF" opacity="0.7"/>
  
  <ellipse cx="600" cy="250" rx="45" ry="22" fill="#FFFFFF" opacity="0.6"/>
  <ellipse cx="700" cy="250" rx="35" ry="18" fill="#FFFFFF" opacity="0.6"/>
  <ellipse cx="650" cy="270" rx="55" ry="28" fill="#FFFFFF" opacity="0.6"/>
  
  <!-- Ground gradient -->
  <rect x="0" y="600" width="1200" height="200" fill="#90EE90" opacity="0.3"/>
</svg>
